<svg xmlns="http://www.w3.org/2000/svg" viewBox="0 0 512 512" role="img" aria-label="GoDocs">
  <rect width="512" height="512" rx="112" fill="#0059A9"/>
  <!-- folha de documento -->
  <path fill="#FFFFFF" d="M154 100 L300 100 L376 176 L376 394 Q376 412 358 412 L154 412 Q136 412 136 394 L136 118 Q136 100 154 100 Z"/>
  <!-- canto dobrado (dog-ear) -->
  <path fill="#D7DB00" d="M300 100 L376 176 L300 176 Z"/>
  <!-- letra D -->
  <path fill="#0059A9" fill-rule="evenodd" d="M186 168 L250 168 C312 168 348 212 348 264 C348 316 312 360 250 360 L186 360 Z M224 204 L250 204 C290 204 312 230 312 264 C312 298 290 324 250 324 L224 324 Z"/>
</svg>
